<svg width="356" height="149" viewBox="0 0 356 149" fill="none" xmlns="http://www.w3.org/2000/svg">
<path d="M248.908 70.2999C241.04 62.4763 231.117 57.4931 220.191 55.8846C218.798 55.681 217.502 56.6583 217.3 58.053C217.097 59.4528 218.064 60.7559 219.456 60.9646C228.388 62.2778 236.635 66.1311 243.379 72.1222C235.081 79.4876 224.428 83.636 213.234 83.8396C202.591 84.0382 192.318 80.643 183.974 74.2651C209.381 70.982 229.218 49.13 229.36 22.8547C229.36 22.1726 229.091 21.5058 228.616 21.0274C228.104 20.5082 227.416 20.2231 226.752 20.274C215.933 20.3453 205.599 23.7455 196.865 30.1133C195.726 30.9429 195.473 32.5514 196.298 33.6967C196.698 34.2515 197.29 34.6129 197.964 34.7249C198.637 34.8318 199.316 34.6689 199.862 34.2668C206.996 29.0596 215.376 26.0411 224.16 25.4965C223.441 37.1224 218.439 47.9847 209.999 56.2104C202.688 63.3315 193.473 67.8006 183.58 69.1292C199.25 48.7737 197.999 19.3171 179.721 0.74316C179.256 0.269777 178.592 0 177.909 0C177.225 0 176.562 0.269777 176.096 0.74316C168.314 8.65323 163.358 18.635 161.758 29.6093C161.555 31.0091 162.522 32.3122 163.92 32.5209C165.312 32.7194 166.608 31.7421 166.811 30.3525C168.117 21.3735 171.95 13.0867 177.909 6.30159C185.519 14.9803 189.574 26.1582 189.356 37.9266C189.169 48.112 185.787 57.7883 179.737 65.7493C176.496 40.4157 155.024 20.5489 129.222 20.2842C128.524 20.2842 127.876 20.5387 127.389 21.0274C126.909 21.5058 126.635 22.1726 126.635 22.8496V27.614C126.635 27.7005 126.635 27.782 126.65 27.8736C127.531 36.6032 130.65 45.0172 135.657 52.2146C136.463 53.3701 138.052 53.6551 139.212 52.8458C139.769 52.4539 140.143 51.8634 140.26 51.1915C140.376 50.5145 140.229 49.8375 139.84 49.2725C135.354 42.8284 132.554 35.295 131.739 27.4817V25.5169C143.171 26.2804 153.854 31.3196 161.945 39.7794C168.932 47.0889 173.322 56.2867 174.633 66.1361C154.533 50.5705 125.4 52.1026 107.102 70.1268C106.606 70.6104 106.332 71.2568 106.332 71.944C106.332 72.6261 106.601 73.2929 107.082 73.7714L110.423 77.1258C110.484 77.1919 110.55 77.2479 110.626 77.309C119.754 84.7864 131.288 88.9094 143.105 88.9094H143.207C152.442 88.9043 161.499 86.4102 169.398 81.6967C169.985 81.3455 170.4 80.7907 170.567 80.1238C170.734 79.457 170.638 78.7699 170.289 78.1794C169.94 77.589 169.388 77.1716 168.724 77.0036C168.061 76.8305 167.373 76.9323 166.79 77.2835C159.682 81.5236 151.53 83.7684 143.212 83.7786H143.08C132.488 83.7735 122.144 80.0933 113.952 73.415L112.57 72.0254C121.197 64.4259 132.275 60.3588 143.926 60.5472C155.991 60.7406 167.312 65.4999 175.808 73.9393C175.808 73.9393 175.813 73.9444 175.818 73.9495C175.818 73.9495 175.828 73.9597 175.833 73.9648C185.579 83.6462 198.546 88.9807 212.353 88.9807H212.358C226.18 88.9807 239.162 83.6411 248.913 73.9444C249.394 73.466 249.668 72.7991 249.668 72.1222C249.668 71.4452 249.394 70.7784 248.908 70.2999Z" fill="#0E5C63"/>
<path d="M2.97202 148.389C2.00498 148.389 1.26577 148.135 0.759461 147.626C0.253154 147.117 0 146.374 0 145.401V104.589C0 103.616 0.253154 102.873 0.759461 102.364C1.26577 101.855 2.00498 101.601 2.97202 101.601H27.5279C28.2773 101.601 28.8494 101.799 29.2443 102.196C29.6392 102.593 29.8367 103.148 29.8367 103.856C29.8367 104.609 29.6392 105.184 29.2443 105.581C28.8494 105.978 28.2773 106.177 27.5279 106.177H5.28078V122.368H26.1406C26.89 122.368 27.4621 122.557 27.857 122.933C28.252 123.31 28.4494 123.875 28.4494 124.628C28.4494 125.382 28.252 125.957 27.857 126.354C27.4621 126.751 26.89 126.95 26.1406 126.95H5.28078V143.808H27.5279C28.2773 143.808 28.8494 144.007 29.2443 144.404C29.6392 144.801 29.8367 145.355 29.8367 146.063C29.8367 146.816 29.6392 147.392 29.2443 147.789C28.8494 148.186 28.2773 148.384 27.5279 148.384H2.97202V148.389Z" fill="#0E5C63"/>
<path d="M37.3655 148.857C36.6161 148.857 36.0136 148.659 35.5478 148.262C35.0871 147.865 34.8238 147.376 34.758 146.801C34.6922 146.226 34.8998 145.651 35.3858 145.076L51.3598 123.442V125.499L36.3073 105.057C35.8212 104.395 35.6035 103.774 35.6491 103.199C35.6947 102.624 35.9478 102.135 36.4086 101.738C36.8693 101.341 37.4313 101.143 38.0895 101.143C38.7072 101.143 39.2338 101.275 39.6742 101.54C40.1147 101.804 40.5755 102.267 41.0615 102.934L54.5951 121.585H52.8787L66.3465 102.934C66.787 102.273 67.2275 101.804 67.668 101.54C68.1085 101.275 68.635 101.143 69.2527 101.143C69.9565 101.143 70.5387 101.331 71.0046 101.708C71.4653 102.084 71.7184 102.568 71.764 103.168C71.8096 103.764 71.5868 104.395 71.1058 105.062L56.0533 125.504V123.448L72.0273 145.081C72.4678 145.656 72.6551 146.231 72.5893 146.806C72.5235 147.381 72.2703 147.87 71.8298 148.267C71.3894 148.664 70.797 148.863 70.0476 148.863C69.4755 148.863 68.9591 148.72 68.4983 148.43C68.0376 148.14 67.5617 147.687 67.0807 147.071L52.6256 127.229H54.7369L40.2818 147.071C39.8413 147.692 39.3806 148.145 38.8945 148.43C38.4085 148.715 37.9022 148.863 37.3756 148.863L37.3655 148.857Z" fill="#0E5C63"/>
<path d="M83.5711 148.857C82.6901 148.857 82.0218 148.603 81.556 148.094C81.0902 147.585 80.8624 146.888 80.8624 146.002V104.39C80.8624 103.459 81.1054 102.766 81.5864 102.298C82.0724 101.835 82.7509 101.601 83.6319 101.601H99.2768C104.249 101.601 108.076 102.827 110.765 105.286C113.448 107.739 114.79 111.206 114.79 115.67C114.79 120.134 113.448 123.544 110.765 126.023C108.081 128.502 104.249 129.739 99.2768 129.739H86.2748V145.997C86.2748 146.883 86.052 147.58 85.6166 148.089C85.1761 148.598 84.4926 148.852 83.5711 148.852V148.857ZM86.2799 125.163H98.6236C102.188 125.163 104.882 124.359 106.709 122.74C108.537 121.126 109.449 118.77 109.449 115.67C109.449 112.57 108.532 110.152 106.709 108.533C104.882 106.92 102.188 106.111 98.6236 106.111H86.2799V125.163Z" fill="#0E5C63"/>
<path d="M141.665 148.99C137.351 148.99 133.599 148.007 130.41 146.038C127.22 144.068 124.754 141.294 123.018 137.71C121.281 134.127 120.41 129.881 120.41 124.969C120.41 121.254 120.906 117.925 121.894 114.983C122.886 112.041 124.304 109.541 126.152 107.485C128 105.428 130.232 103.835 132.85 102.705C135.468 101.575 138.404 101.015 141.665 101.015C146.065 101.015 149.862 101.988 153.052 103.937C156.241 105.887 158.707 108.64 160.444 112.198C162.18 115.761 163.051 119.996 163.051 124.908C163.051 128.624 162.545 131.968 161.532 134.931C160.52 137.893 159.092 140.418 157.244 142.495C155.396 144.577 153.163 146.18 150.545 147.305C147.928 148.435 144.966 149 141.665 149V148.99ZM141.665 144.144C145.006 144.144 147.837 143.391 150.145 141.889C152.454 140.387 154.226 138.194 155.462 135.318C156.692 132.442 157.31 128.991 157.31 124.964C157.31 118.902 155.958 114.204 153.249 110.86C150.54 107.52 146.682 105.851 141.665 105.851C138.409 105.851 135.625 106.604 133.316 108.106C131.007 109.613 129.235 111.791 128 114.642C126.769 117.497 126.152 120.938 126.152 124.959C126.152 130.976 127.514 135.679 130.243 139.064C132.972 142.449 136.779 144.139 141.665 144.139V144.144Z" fill="#0E5C63"/>
<path d="M188.665 148.99C187.212 148.99 186.033 148.613 185.131 147.86C184.23 147.106 183.557 146.002 183.116 144.541L172.555 107.973C172.2 106.691 172.18 105.576 172.489 104.624C172.798 103.672 173.35 102.934 174.139 102.4C174.929 101.865 175.876 101.606 176.98 101.606C178.256 101.606 179.324 101.926 180.18 102.568C181.04 103.209 181.688 104.395 182.129 106.121L190.974 138.972H187.739L207.54 105.194C208.29 103.912 209.08 102.995 209.915 102.441C210.751 101.886 211.849 101.611 213.216 101.611C214.583 101.611 215.646 101.932 216.416 102.573C217.186 103.214 217.626 104.044 217.738 105.062C217.849 106.08 217.55 107.144 216.846 108.248L194.468 145.411C193.718 146.648 192.903 147.559 192.027 148.135C191.146 148.71 190.022 149 188.66 149L188.665 148.99Z" fill="#0E5C63"/>
<path d="M222.396 148.99C220.634 148.99 219.378 148.445 218.634 147.366C217.884 146.282 217.667 144.79 217.976 142.887L223.783 106.187C224.046 104.461 224.664 103.168 225.631 102.303C226.598 101.443 227.919 101.01 229.59 101.01C231.261 101.01 232.527 101.54 233.256 102.603C233.98 103.667 234.193 105.169 233.884 107.118L228.076 143.752C227.813 145.478 227.216 146.786 226.294 147.666C225.368 148.552 224.071 148.995 222.401 148.995L222.396 148.99Z" fill="#0E5C63"/>
<path d="M253.027 148.99C251.356 148.99 250.131 148.445 249.362 147.366C248.592 146.282 248.359 144.811 248.668 142.953L253.817 110.101H242.992C241.585 110.101 240.481 109.791 239.691 109.17C238.901 108.549 238.501 107.709 238.501 106.65C238.501 105.057 238.952 103.82 239.853 102.934C240.754 102.049 242 101.606 243.585 101.606H276.262C277.715 101.606 278.824 101.906 279.593 102.502C280.363 103.097 280.748 103.927 280.748 104.991C280.748 106.584 280.307 107.836 279.426 108.742C278.545 109.648 277.315 110.101 275.73 110.101H264.11L258.764 143.813C258.5 145.493 257.893 146.776 256.951 147.661C256.004 148.547 254.693 148.99 253.022 148.99H253.027Z" fill="#0E5C63"/>
<path d="M275.006 148.99C273.816 148.99 272.814 148.715 272.004 148.16C271.188 147.605 270.707 146.877 270.551 145.971C270.399 145.065 270.652 144.057 271.31 142.953L294.944 104.527C295.694 103.291 296.504 102.395 297.385 101.84C298.266 101.285 299.39 101.01 300.752 101.01C302.114 101.01 303.248 101.367 304.149 102.074C305.05 102.782 305.698 103.845 306.098 105.26L317.252 142.754C317.647 144.129 317.713 145.264 317.45 146.17C317.186 147.076 316.68 147.773 315.931 148.262C315.181 148.751 314.28 148.99 313.227 148.99C311.728 148.99 310.594 148.623 309.83 147.895C309.06 147.168 308.478 146.027 308.078 144.48L305.901 136.117L308.873 138.239H282.074L285.704 136.315L280.094 146.007C279.522 146.979 278.829 147.722 278.013 148.231C277.198 148.74 276.196 148.995 275.011 148.995L275.006 148.99ZM299.562 112.555L288.21 132.065L286.757 130.207H306.822L304.843 132.264L299.694 112.555H299.562Z" fill="#0E5C63"/>
<path d="M328.609 148.389C326.801 148.389 325.485 147.89 324.649 146.898C323.814 145.9 323.525 144.521 323.789 142.749L329.662 105.785C329.925 104.192 330.523 102.995 331.444 102.201C332.366 101.407 333.621 101.005 335.206 101.005C336.922 101.005 338.178 101.504 338.968 102.497C339.758 103.494 340.026 104.874 339.758 106.645L334.543 139.695H351.377C352.871 139.695 354.015 140.006 354.81 140.627C355.6 141.248 356 142.108 356 143.213C356 144.852 355.539 146.124 354.613 147.03C353.686 147.936 352.436 148.389 350.851 148.389H328.604H328.609Z" fill="#0E5C63"/>
</svg>
