<svg width="164" height="47" viewBox="0 0 164 47" fill="none" xmlns="http://www.w3.org/2000/svg">
<g clip-path="url(#clip0_12_2741)">
<path fill-rule="evenodd" clip-rule="evenodd" d="M29.792 8.46487C29.792 12.6207 26.4534 15.9797 22.3467 15.9797C18.24 15.9797 14.9014 12.6099 14.9014 8.46487C14.9014 4.30908 18.24 0.950001 22.3467 0.950001C26.4534 0.950001 29.792 4.31985 29.792 8.46487Z" fill="#FF6600"/>
<path fill-rule="evenodd" clip-rule="evenodd" d="M44.6827 8.46487C44.6827 12.6207 41.344 15.9797 37.2373 15.9797C33.1307 15.9797 29.792 12.6099 29.792 8.46487C29.792 4.31985 33.12 0.950001 37.2373 0.950001C41.3547 0.950001 44.6827 4.31985 44.6827 8.46487Z" fill="#FF6600"/>
<path fill-rule="evenodd" clip-rule="evenodd" d="M29.792 38.5351C29.792 42.6909 26.4534 46.05 22.3467 46.05C18.24 46.05 14.9014 42.6801 14.9014 38.5351C14.9014 34.3793 18.24 31.0203 22.3467 31.0203C26.4534 31.0203 29.792 34.3901 29.792 38.5351Z" fill="#FF6600"/>
<path fill-rule="evenodd" clip-rule="evenodd" d="M44.6827 38.5351C44.6827 42.6909 41.344 46.05 37.2373 46.05C33.1307 46.05 29.792 42.6801 29.792 38.5351C29.792 34.3901 33.1307 31.0203 37.2373 31.0203C41.344 31.0203 44.6827 34.3901 44.6827 38.5351Z" fill="#FF6600"/>
<path fill-rule="evenodd" clip-rule="evenodd" d="M14.8907 23.4946C14.8907 27.6504 11.552 31.0095 7.44533 31.0095C3.33867 31.0095 0 27.6504 0 23.4946C0 19.3388 3.33867 15.9797 7.44533 15.9797C11.552 15.9797 14.8907 19.3496 14.8907 23.4946Z" fill="#FF6600"/>
<path fill-rule="evenodd" clip-rule="evenodd" d="M29.792 23.4946C29.792 27.6504 26.4534 31.0095 22.3467 31.0095C18.24 31.0095 14.9014 27.6396 14.9014 23.4946C14.9014 19.3496 18.24 15.9797 22.3467 15.9797C26.4534 15.9797 29.792 19.3496 29.792 23.4946Z" fill="#FF6600"/>
<path fill-rule="evenodd" clip-rule="evenodd" d="M99.936 17.2286C99.1253 17.2286 98.368 17.3794 97.664 17.6808C96.9493 17.9823 96.3093 18.4237 95.7333 18.9943V17.4978H93.4506V33.9487H95.7013V28.2318C96.32 28.8347 96.9813 29.2761 97.7066 29.5776C98.432 29.879 99.2213 30.0298 100.075 30.0298C101.035 30.0298 101.888 29.879 102.635 29.5668C103.381 29.2654 104.075 28.7809 104.704 28.1457C105.291 27.5427 105.739 26.8645 106.048 26.0893C106.357 25.3249 106.517 24.5067 106.517 23.6561C106.517 21.8151 105.899 20.2863 104.651 19.0589C103.403 17.8423 101.835 17.2286 99.9466 17.2286H99.936ZM102.901 26.6599C102.059 27.4781 101.045 27.8873 99.872 27.8873C98.6986 27.8873 97.728 27.4674 96.896 26.6168C96.064 25.7663 95.648 24.7327 95.648 23.5269C95.648 22.4072 96.0746 21.4167 96.9173 20.577C97.76 19.7372 98.7413 19.3173 99.8506 19.3173C101.056 19.3173 102.08 19.7372 102.923 20.5662C103.755 21.406 104.181 22.4395 104.181 23.6776C104.181 24.8512 103.755 25.8417 102.912 26.6599H102.901ZM69.9306 18.9943C69.3013 18.3699 68.5973 17.9069 67.8186 17.5839C67.04 17.2609 66.1973 17.1102 65.28 17.1102C64.4266 17.1102 63.6053 17.2932 62.816 17.6485C62.0266 18.0038 61.312 18.5098 60.6826 19.1666C60.096 19.7695 59.6586 20.437 59.36 21.1906C59.0613 21.9443 58.912 22.7517 58.912 23.613C58.912 24.4744 59.0826 25.2495 59.4133 26.0462C59.744 26.8429 60.2026 27.5427 60.7893 28.1349C61.408 28.7593 62.1013 29.2438 62.88 29.556C63.6586 29.879 64.5013 30.0405 65.4186 30.0405C66.336 30.0405 67.1573 29.8683 67.9573 29.513C68.7466 29.1577 69.472 28.6517 70.1013 27.9626C70.656 27.3705 71.0826 26.6814 71.392 25.8847C71.7013 25.088 71.8506 24.2806 71.8506 23.4408C71.8506 22.601 71.6906 21.8258 71.36 21.0507C71.0293 20.2863 70.56 19.5865 69.9413 18.9728L69.9306 18.9943ZM68.3306 26.6384C67.5413 27.4566 66.5706 27.8657 65.408 27.8657C64.2453 27.8657 63.232 27.4566 62.4426 26.6491C61.6533 25.8309 61.248 24.8189 61.248 23.6023C61.248 22.3857 61.6426 21.3521 62.4426 20.5339C63.232 19.7156 64.224 19.3065 65.3866 19.3065C66.5493 19.3065 67.552 19.7049 68.3306 20.5124C69.12 21.3198 69.5146 22.3426 69.5146 23.57C69.5146 24.7973 69.12 25.8201 68.3306 26.6384ZM51.1573 19.3173C52.0213 19.3173 52.768 19.5003 53.3866 19.8771C54.0053 20.2432 54.5173 20.803 54.912 21.5567H57.3866C56.9066 20.1571 56.1386 19.0697 55.0826 18.3053C54.0266 17.5301 52.7786 17.1425 51.3386 17.1425C50.4213 17.1425 49.5573 17.3148 48.7466 17.6593C47.936 18.0038 47.2106 18.5206 46.5706 19.1881C45.984 19.8018 45.5466 20.4801 45.2373 21.2229C44.9386 21.9658 44.7893 22.7625 44.7893 23.613C44.7893 24.4636 44.96 25.2495 45.2906 26.0462C45.6213 26.8429 46.08 27.5427 46.6666 28.1349C47.2853 28.7593 47.968 29.2331 48.7253 29.5453C49.4826 29.8575 50.336 30.019 51.264 30.019C52.7466 30.019 54.0053 29.6422 55.04 28.8778C56.0746 28.1134 56.8533 27.0044 57.376 25.5294H54.9013C54.5386 26.2723 54.048 26.8429 53.408 27.2413C52.768 27.6396 52.0533 27.8442 51.264 27.8442C50.0906 27.8442 49.0986 27.4351 48.3093 26.6276C47.52 25.8094 47.1253 24.7973 47.1253 23.5807C47.1253 22.3642 47.52 21.3629 48.2986 20.5447C49.0773 19.7264 50.0266 19.3173 51.1466 19.3173H51.1573ZM86.4106 17.2932C85.4933 17.2932 84.704 17.4655 84.064 17.81C83.424 18.1545 82.912 18.6821 82.5173 19.3927C82.1333 18.6713 81.632 18.133 81.024 17.7885C80.416 17.444 79.6586 17.2825 78.752 17.2825C78.08 17.2825 77.4826 17.4224 76.9493 17.6916C76.4266 17.9607 75.9573 18.3699 75.5306 18.9189V17.487H73.5253V29.696H75.6693V23.4516C75.6693 22.0304 75.904 20.9861 76.3626 20.3078C76.8213 19.6295 77.536 19.2958 78.5066 19.2958C79.4773 19.2958 80.128 19.6295 80.5653 20.3078C80.992 20.9861 81.216 22.0627 81.216 23.5484V29.7068H83.4026V23.3224C83.4026 21.8689 83.616 20.8246 84.0426 20.2109C84.4693 19.5972 85.1733 19.285 86.1546 19.285C86.9973 19.285 87.648 19.5757 88.1173 20.1463C88.5866 20.7277 88.8213 21.5352 88.8213 22.5795V29.696H91.0933V22.235C91.0933 20.7277 90.6666 19.5326 89.8133 18.639C88.96 17.7347 87.8293 17.2932 86.4106 17.2932V17.2932ZM154.037 18.9728C153.44 18.3699 152.789 17.9284 152.064 17.627C151.339 17.3255 150.549 17.1856 149.696 17.1856C148.736 17.1856 147.883 17.3363 147.136 17.6485C146.389 17.95 145.696 18.4345 145.067 19.0697C144.491 19.6511 144.043 20.3293 143.733 21.1045C143.424 21.8797 143.264 22.6871 143.264 23.5484C143.264 25.3895 143.883 26.9291 145.131 28.1457C146.379 29.373 147.947 29.9867 149.824 29.9867C150.624 29.9867 151.392 29.836 152.096 29.5345C152.811 29.2331 153.451 28.7916 154.027 28.2103V29.7068H156.309V17.4978H154.027V18.9728H154.037ZM152.885 26.6276C152.043 27.4674 151.061 27.8873 149.952 27.8873C148.736 27.8873 147.712 27.4674 146.869 26.6384C146.027 25.7986 145.611 24.765 145.611 23.5269C145.611 22.2888 146.027 21.3521 146.869 20.5447C147.712 19.7264 148.725 19.3281 149.909 19.3281C151.093 19.3281 152.064 19.7587 152.907 20.6093C153.749 21.4598 154.165 22.4934 154.165 23.6884C154.165 24.8081 153.739 25.7986 152.896 26.6384L152.885 26.6276ZM162.315 17.7024C161.835 17.9607 161.408 18.3699 161.035 18.9082V17.4978H158.912V29.7068H161.163V22.9132C161.163 21.7935 161.387 20.9753 161.824 20.4693C162.261 19.9633 162.987 19.6726 164 19.5972V17.304C163.36 17.304 162.805 17.444 162.315 17.7131V17.7024ZM139.296 22.5472C139.093 22.4718 138.827 22.3749 138.485 22.2457C137.269 21.8043 136.661 21.2552 136.661 20.5662C136.661 20.1678 136.8 19.8341 137.067 19.5649C137.333 19.2958 137.675 19.1558 138.08 19.1558C138.528 19.1558 138.891 19.285 139.147 19.5326C139.413 19.7802 139.563 20.1355 139.605 20.5877H141.771C141.707 19.4896 141.365 18.6283 140.736 18.0146C140.107 17.4009 139.253 17.0994 138.187 17.0994C137.12 17.0994 136.288 17.444 135.584 18.1438C134.869 18.8436 134.517 19.6833 134.517 20.6738C134.517 21.2552 134.624 21.7612 134.837 22.2027C135.051 22.6441 135.381 23.0317 135.829 23.387C136.075 23.5807 136.64 23.8391 137.525 24.1621C137.856 24.2806 138.123 24.3775 138.304 24.4528C138.837 24.6574 139.221 24.9158 139.467 25.2065C139.701 25.5079 139.829 25.8632 139.829 26.2939C139.829 26.7783 139.659 27.1875 139.317 27.4997C138.976 27.8119 138.549 27.9734 138.027 27.9734C137.472 27.9734 137.013 27.7688 136.64 27.349C136.267 26.9291 136.085 26.4015 136.085 25.7555H133.963C134.027 27.0798 134.421 28.1241 135.136 28.8885C135.851 29.6529 136.789 30.0298 137.952 30.0298C139.115 30.0298 140.064 29.6637 140.821 28.9424C141.579 28.221 141.963 27.3059 141.963 26.2077C141.963 25.2711 141.76 24.5174 141.355 23.9576C140.949 23.3977 140.267 22.924 139.307 22.5472H139.296ZM119.296 19.468C118.677 18.8651 118.069 18.3914 117.461 18.0469C116.853 17.7024 116.224 17.4547 115.563 17.3148C114.475 17.1102 113.419 17.1533 112.384 17.444C111.349 17.7454 110.443 18.273 109.664 19.0266C109.013 19.6618 108.523 20.3724 108.213 21.1476C107.904 21.9227 107.776 22.7625 107.819 23.6669C107.851 24.5067 108.032 25.2926 108.363 26.0247C108.693 26.7568 109.173 27.4351 109.792 28.038C110.389 28.6194 111.104 29.0823 111.915 29.4161C112.725 29.7498 113.557 29.9329 114.4 29.9544C115.307 29.9759 116.139 29.836 116.917 29.5345C117.536 29.2976 118.101 28.9424 118.645 28.4902V25.3249C118.645 25.3249 118.645 25.3895 118.645 25.4003C118.645 25.3572 118.635 25.1957 118.539 25.3464C118.155 25.9278 118.005 26.057 117.483 26.5738C116.747 27.2951 115.883 27.6827 114.891 27.7581C113.899 27.8334 112.96 27.575 112.085 26.9829L119.552 19.7156L119.307 19.468H119.296ZM110.699 25.5294C110.187 24.6466 109.973 23.7638 110.08 22.8594C110.187 21.955 110.581 21.1691 111.285 20.4908C111.968 19.8233 112.757 19.4465 113.643 19.3604C114.528 19.2742 115.445 19.4896 116.373 20.0063L110.709 25.5187L110.699 25.5294ZM127.083 17.2932C126.357 17.2932 125.707 17.4224 125.141 17.6808C124.576 17.9392 124.053 18.3376 123.584 18.8866V17.4978H121.419V29.7068H123.68V24.1621C123.68 22.4718 123.936 21.2552 124.437 20.5124C124.939 19.7802 125.76 19.4034 126.88 19.4034C127.915 19.4034 128.683 19.7156 129.173 20.3401C129.664 20.9645 129.92 21.9227 129.92 23.2147V29.696H132.192V22.741C132.192 20.9861 131.755 19.6403 130.88 18.7036C130.005 17.7669 128.747 17.2932 127.104 17.2932H127.083Z" fill="black"/>
</g>
<defs>
<clipPath id="clip0_12_2741">
<rect width="164" height="45.1" fill="white" transform="translate(0 0.950001)"/>
</clipPath>
</defs>
</svg>
